# xmcd CD database file
#
# Track frame offsets:
#	150
#	15197
#	36360
#	56967
#	82969
#	108704
#	131116
#	148601
#	165483
#	182463
#	195818
#	211113
#	228779
#	253105
#	273361
#	295489
#	312876
#	329766
#
# Disc length: 4620 seconds
#
# Revision: 0
# Processed by: cddbd v1.5.2PL0 Copyright (c) Steve Scherf et al.
# Submitted via: CDex 1.51
#
DISCID=fe120a12
DTITLE=Various Artist - Java Jazz 2015 - Disc 1
DYEAR=1900
DGENRE=Jazz
TTITLE0=Sunrise - Norah Jones
TTITLE1=Biggest Part of Me - David Pack
TTITLE2=Is It You? - Lee Ritenour
TTITLE3=Love's Holiday - Norman Brown
TTITLE4=Beneath the Surface - Incognito
TTITLE5=If I Ever Lose This Heaven - Jeff Golub
TTITLE6=What's Going On - Marvin Gaye
TTITLE7=You Gotta Be - Natalie Cole
TTITLE8=You Haven't Done Nothing - Dave Koz feat. Albright Abair Elliot
TTITLE9=Don't Let Me Be Misunderstood - Jamie Cullum feat. Gregory Porter
TTITLE10=Let's Stay Together - Maroon 5
TTITLE11=Only One - PJ Morton feat, Stevie Wonder
TTITLE12=I Can't Stop Lovin you - Kem
TTITLE13=Close the Door - Ruben Studdard
TTITLE14=My Favourite Mistake - Sitti
TTITLE15=Back Seat Lover - Mayer Hawthorne
TTITLE16=I Know You Know - Esperanza Spalding, Leo Genovese
TTITLE17=Rescue (Live from Spotify Singapore 2014) - Yuna
EXTD=
EXTT0=
EXTT1=
EXTT2=
EXTT3=
EXTT4=
EXTT5=
EXTT6=
EXTT7=
EXTT8=
EXTT9=
EXTT10=
EXTT11=
EXTT12=
EXTT13=
EXTT14=
EXTT15=
EXTT16=
EXTT17=
PLAYORDER=
